<?xml version="1.0" ?><svg fill="none" height="32" viewBox="0 0 32 32" width="32" xmlns="http://www.w3.org/2000/svg"><circle cx="16" cy="16" fill="#EB666B" r="13" stroke="#EB666B" stroke-width="2"/><path clip-rule="evenodd" d="M15 7H17C18.1046 7 19 7.89543 19 9V13H20H23C24.1046 13 25 13.8954 25 15V17C25 18.1046 24.1046 19 23 19H20H19V23C19 24.1046 18.1046 25 17 25H15C13.8954 25 13 24.1046 13 23V19H12H9C7.89543 19 7 18.1046 7 17V15C7 13.8954 7.89543 13 9 13H12H13V9C13 7.89543 13.8954 7 15 7Z" fill="#F8C09D" fill-rule="evenodd"/></svg>