<svg width="1920" height="1080" viewBox="0 0 1920 1080" fill="none" xmlns="http://www.w3.org/2000/svg">
<g clip-path="url(#clip0_0_4)">
<rect width="1920" height="1080" fill="white"/>
<path d="M1585 -29C1457.67 94.5 1707.5 311 1188.5 341.5C896.952 358.633 695.5 603 391.5 552.693C87.5 502.385 27.6648 744.029 -137 848.5V1018.5H1920V-284L1585 -29Z" fill="#ECEFF4"/>
<path d="M1585 182C1457.67 305.5 1707.5 522 1188.5 552.5C896.952 569.633 695.5 814 391.5 763.693C87.5 713.385 27.6648 955.029 -137 1059.5V1229.5H1920V-73L1585 182Z" fill="#D8DEE9"/>
<path d="M1585 427C1457.67 550.5 1707.5 767 1188.5 797.5C896.952 814.633 695.5 1059 391.5 1008.69C87.5 958.385 27.6648 1200.03 -137 1304.5V1474.5H1920V172L1585 427Z" fill="#4C566A"/>
<path d="M-73 739.5C54.3334 616 -195.5 399.5 323.5 369C615.048 351.867 816.5 107.5 1120.5 157.807C1424.5 208.115 1484.34 -33.5294 1649 -138V-308L-408 -308V994.5L-73 739.5Z" fill="#88C0D0"/>
</g>
<defs>
<clipPath id="clip0_0_4">
<rect width="1920" height="1080" fill="white"/>
</clipPath>
</defs>
</svg>
